<?xml version="1.0" encoding="UTF-8"?>
<svg id="_图层_2" data-name="图层 2" xmlns="http://www.w3.org/2000/svg" viewBox="0 0 93.88 91.96">
  <defs>
    <style>
      .cls-1 {
        fill: #bd34fe;
      }
    </style>
  </defs>
  <g id="_图层_1-2" data-name="图层 1">
    <g>
      <g>
        <path class="cls-1" d="M19.06,54.83h-2.92l3.04-14.31h3.9l3.42,10.66,2.27-10.66h2.89l-3.04,14.31h-3.75l-3.59-10.49-2.23,10.49Z"/>
        <path class="cls-1" d="M37.16,40.53h3.05l-3.04,14.31h-3.05l3.04-14.31Z"/>
        <path class="cls-1" d="M46.75,49.11c-.19,.87-.21,1.54-.08,1.99,.25,.96,1.12,1.44,2.61,1.44,1,0,1.83-.22,2.48-.66,.63-.4,1.1-1.32,1.41-2.77l1.82-8.58h3.05l-1.79,8.43c-.32,1.49-.78,2.66-1.41,3.52-1.21,1.64-3.24,2.47-6.1,2.47-1.53,0-2.75-.24-3.66-.73-.55-.3-.98-.75-1.28-1.35-.41-.77-.43-2-.07-3.69l1.84-8.64h3.02l-1.82,8.58Z"/>
        <path class="cls-1" d="M63.36,54.83h-3.05l3.04-14.31h3.04l-3.04,14.31Zm8.62-14.31h4.01l-7.49,7.08,4.15,7.23h-3.99l-3.65-7.23,6.97-7.08Z"/>
        <path class="cls-1" d="M81.12,49.11c-.19,.87-.21,1.54-.08,1.99,.25,.96,1.12,1.44,2.61,1.44,1,0,1.83-.22,2.48-.66,.63-.4,1.1-1.32,1.4-2.77l1.82-8.58h3.05l-1.79,8.43c-.32,1.49-.79,2.66-1.41,3.52-1.21,1.64-3.24,2.47-6.1,2.47-1.53,0-2.75-.24-3.67-.73-.55-.3-.98-.75-1.28-1.35-.41-.77-.43-2-.07-3.69l1.84-8.64h3.03l-1.82,8.58Z"/>
      </g>
      <path class="cls-1" d="M44.92,86.94c-22.62,0-37.06-18.34-32.25-40.96C17.48,23.36,39.71,5.02,62.34,5.02c11.71,0,21.23,4.92,27.02,12.8C83.25,6.98,71.58,0,56.79,0,31.4,0,6.43,20.59,1.04,45.98c-5.4,25.4,10.81,45.98,36.21,45.98,14.78,0,29.42-6.98,40.14-17.82-9.14,7.88-20.75,12.8-32.46,12.8Z"/>
      <g>
        <path class="cls-1" d="M23.21,36.92c1.07-.57,2.18-1.05,3.19-1.66,.93-.56,1.69-1.71,2.33-2.56,.31-.41,.67-.75,.96-1.16,.28-.4,.33-.83,.66-1.16,.15-.15,.65-.48,.85-.36,.25,.15-.03,.71-.06,1.01-.1,.75,.03,1.78,.84,.8,.76-.93,1.04-1.68,2.28-2.14,1.31-.48,1.53,.03,1.4,1.27-.11,.96-.94,1.24-1.33,2.08-.74,1.64,1.27,.42,1.71,1.03,.17,.22,.09,.69,.19,1,.15,.46,.53,1.07,.94,1.31,.74,.44,2.06,.7,2.98-.06,.33-.27,.36-.57,.59-.93,.25-.41,.62-.65,.96-1,.86-.91,1.28-1.69,1.49-2.75,.14-.7,.64-1.64,1.02-2.27,.71-1.17,1.81-.52,2.18,.23,.31,.62,.04,1.41,.7,1.82,.97,.6,2.55,.65,3.8,.51,1.45-.16,2.07-.79,2.76-2.11,.42-.81,.64-1.68,.98-2.52,.37-.97,1.37-1.25,2.17-.91,.62,.25,1.23,1.34,1.97,.2,.38-.58,.46-1.71,.39-2.27-.1-.75-.5-1.16,.05-2,.53-.8,1.26-1.29,2.12-1.53,2.71-.76,2.48,2.1,4.37,2.65,1.05,.31,2.11,.05,3.25,0,1.25-.06,2.48-.37,3.41,.32,1.35,.99,2.63,2.11,4.09,2.93-3.98-7.72-12.02-12.74-22.29-12.74-14.78,0-29.34,10.37-35.34,24.24,.41-.05,.76-.1,.94-.13,1.11-.16,2.37-.54,3.46-1.12Z"/>
        <path class="cls-1" d="M70.27,24.68c-1.36-.66-2.62,.01-4.11,.45-.31,.63-.55,1.4-.59,1.69-.17,1.12,.62,1.91,1.38,2.46,1.14,.82,4.06,2.81,5.32,.66,1.41-2.38-.18-4.39-2-5.26Z"/>
      </g>
      <g>
        <path class="cls-1" d="M75.73,57.09h0c-7.47,12.22-21.24,20.85-35.19,20.85s-24.06-8.63-26.33-20.85c.74,8.81,4.79,16.33,11.19,21.33,5.32,4.16,12.26,6.58,20.29,6.58,17.73,0,35.21-11.83,43.4-28.03h-13.28s-.05,.08-.07,.12Z"/>
        <path class="cls-1" d="M54.62,11.73c8.35,0,15.32,3.09,20.06,8.2,3.34,3.72,5.58,8.41,6.44,13.7,.23,1.56,.33,3.17,.31,4.82h12.45c.3-17.95-12.62-31.48-31.59-31.48-8.03,0-16,2.42-23.09,6.58-4.37,2.56-8.39,5.78-11.89,9.49,7.54-6.93,17.38-11.3,27.31-11.3Z"/>
      </g>
    </g>
  </g>
</svg>